<svg width="1811" height="308" viewBox="0 0 1811 308" fill="none" xmlns="http://www.w3.org/2000/svg">
<path d="M2 23.5217V277.478C6.49229 289.423 12.045 293.954 26.1976 299H71.0342H180.635H277.425H349.306H373.75C383.275 294.053 387.831 290.528 392.724 281.131L442.619 139.409C443.169 134.355 443.083 131.522 442.619 126.469C437.749 116.692 432.626 113.051 420.834 108.6H373.047V59.9212C368.276 49.3585 363.688 45.7145 352.668 42.5839H335.784H256.074H206.968H201.578L176.983 9.39419C172.91 5.77109 169.941 4.17063 163.554 2H105.196H26.9093C11.9644 4.173 7.07388 9.55803 2 23.5217Z" fill="#808080" stroke="black" stroke-width="3"/>
<g filter="url(#filter0_d_124_2)">
<path d="M237.532 149.748C239.866 149.748 242.699 151.331 246.032 154.498C249.532 157.498 251.282 160.081 251.282 162.248C251.282 172.415 250.949 186.331 250.282 203.998C250.116 208.331 249.949 213.581 249.782 219.748C249.616 225.748 249.532 232.748 249.532 240.748C249.532 266.081 251.032 284.748 254.032 296.748C253.866 300.748 252.282 303.665 249.282 305.498C246.282 307.165 243.282 307.998 240.282 307.998C233.616 307.998 229.199 305.665 227.032 300.998C225.032 296.331 224.032 289.665 224.032 280.998C224.032 248.831 224.366 219.248 225.032 192.248C205.866 213.581 190.949 231.498 180.282 245.998C180.282 245.998 178.782 246.998 175.782 248.998C172.949 251.498 170.616 252.748 168.782 252.748C164.449 252.748 160.866 251.665 158.032 249.498C155.199 247.331 152.449 244.165 149.782 239.998L137.782 222.998C129.449 211.331 123.366 202.498 119.532 196.498C119.532 211.831 120.282 232.665 121.782 258.998C122.949 274.165 123.532 285.581 123.532 293.248C123.532 297.248 122.532 300.665 120.532 303.498C118.532 306.165 115.366 307.498 111.032 307.498C106.699 307.498 103.116 306.665 100.282 304.998C97.6156 303.331 96.1989 300.831 96.0322 297.498C96.1989 294.665 96.2822 289.998 96.2822 283.498C96.2822 270.498 95.8656 254.665 95.0322 235.998L94.5322 222.498L94.0322 204.998C93.8656 199.831 93.6989 193.831 93.5322 186.998C93.3656 179.998 93.2822 172.415 93.2822 164.248C93.2822 154.248 98.6989 149.248 109.532 149.248C112.866 149.248 116.199 150.081 119.532 151.748C123.032 153.415 125.616 155.831 127.282 158.998C128.616 164.831 133.532 174.498 142.032 187.998C150.532 201.498 158.866 214.165 167.032 225.998C174.366 216.665 180.366 209.665 185.032 204.998C193.032 196.831 199.616 189.248 204.782 182.248C210.116 175.248 215.866 166.831 222.032 156.998C223.532 154.998 225.699 153.331 228.532 151.998C231.366 150.498 234.366 149.748 237.532 149.748ZM411.815 160.998C411.815 163.998 409.232 168.415 404.065 174.248C400.399 178.415 392.399 189.831 380.065 208.498C369.565 224.331 361.482 236.081 355.815 243.748C355.982 261.581 356.649 274.665 357.815 282.998C358.315 287.998 358.565 291.581 358.565 293.748C358.565 299.248 357.565 302.998 355.565 304.998C353.732 306.831 350.482 307.748 345.815 307.748C342.315 307.748 338.982 306.748 335.815 304.748C332.815 302.581 331.315 299.998 331.315 296.998C331.315 288.331 331.065 272.165 330.565 248.498C330.565 247.331 329.065 244.248 326.065 239.248C323.399 234.581 316.815 225.581 306.315 212.248C296.149 199.081 288.482 188.748 283.315 181.248C278.315 173.581 275.815 167.748 275.815 163.748C275.815 160.248 277.399 157.498 280.565 155.498C283.899 153.331 287.482 152.248 291.315 152.248C296.149 152.248 300.065 154.498 303.065 158.998C304.732 161.331 307.315 165.831 310.815 172.498C313.315 177.331 316.149 182.415 319.315 187.748C322.482 193.081 325.399 197.415 328.065 200.748L335.065 209.248C340.065 215.248 342.565 218.331 342.565 218.498C347.565 213.498 352.065 207.998 356.065 201.998C360.065 195.831 364.899 187.998 370.565 178.498L380.065 162.998L384.315 156.498C385.815 154.498 387.565 152.915 389.565 151.748C391.565 150.581 394.315 149.998 397.815 149.998C400.982 149.998 404.065 150.915 407.065 152.748C410.232 154.581 411.815 157.331 411.815 160.998ZM553.302 251.248C546.968 251.248 541.552 251.081 537.052 250.748C532.718 250.248 526.968 249.498 519.802 248.498C519.802 255.665 519.635 264.415 519.302 274.748L519.052 293.998C519.052 298.331 517.885 301.748 515.552 304.248C513.218 306.581 510.468 307.748 507.302 307.748C501.802 307.748 497.718 307.081 495.052 305.748C492.552 304.248 491.302 301.665 491.302 297.998C491.302 291.498 491.635 284.665 492.302 277.498C494.302 260.165 495.302 240.665 495.302 218.998C495.302 203.831 494.885 189.581 494.052 176.248C491.218 175.081 488.718 173.581 486.552 171.748C484.552 169.915 483.468 168.081 483.302 166.248C483.302 161.915 484.885 158.415 488.052 155.748C491.218 153.081 496.052 151.748 502.552 151.748C507.885 151.748 514.468 151.331 522.302 150.498C524.135 150.331 527.302 150.081 531.802 149.748C536.302 149.415 540.218 149.248 543.552 149.248C557.218 149.248 567.802 150.581 575.302 153.248C582.968 155.915 590.635 160.331 598.302 166.498C606.635 179.498 610.802 188.665 610.802 193.998C610.802 211.165 605.718 224.998 595.552 235.498C585.552 245.998 571.468 251.248 553.302 251.248ZM547.802 170.498C542.468 170.498 537.718 170.831 533.552 171.498C529.552 171.998 524.885 172.915 519.552 174.248C520.385 187.081 520.802 198.248 520.802 207.748C520.802 214.915 520.552 220.915 520.052 225.748C527.218 227.248 532.802 228.248 536.802 228.748C540.968 229.081 545.635 229.248 550.802 229.248C563.135 229.248 571.802 226.081 576.802 219.748C581.968 213.415 584.552 205.915 584.552 197.248C584.552 194.748 583.802 191.665 582.302 187.998C580.968 184.331 579.718 181.915 578.552 180.748C574.052 176.748 569.635 174.081 565.302 172.748C560.968 171.248 555.135 170.498 547.802 170.498ZM703.292 148.748C714.459 148.748 724.625 150.165 733.792 152.998C742.959 155.665 750.459 159.665 756.292 164.998C766.792 174.498 774.125 184.915 778.292 196.248C782.625 207.415 784.792 221.748 784.792 239.248C784.792 242.915 784.292 246.248 783.292 249.248C782.459 252.248 781.042 256.081 779.042 260.748C776.542 265.915 775.042 269.998 774.542 272.998C771.209 278.831 765.709 284.415 758.042 289.748C750.542 295.081 742.375 299.415 733.542 302.748C724.709 306.081 716.959 307.748 710.292 307.748C678.125 307.748 655.209 296.748 641.542 274.748C637.709 268.581 634.709 262.165 632.542 255.498C630.542 248.831 629.542 242.331 629.542 235.998C629.542 218.998 632.542 204.248 638.542 191.748C644.709 179.081 653.209 169.248 664.042 162.248C670.542 158.415 677.292 155.248 684.292 152.748C691.459 150.081 697.792 148.748 703.292 148.748ZM655.542 236.748C655.542 245.748 657.542 253.165 661.542 258.998C665.709 264.831 672.042 271.165 680.542 277.998C687.542 280.665 692.292 282.415 694.792 283.248C697.292 283.915 700.125 284.248 703.292 284.248C720.125 284.248 733.542 279.665 743.542 270.498C753.542 261.331 758.542 248.748 758.542 232.748C758.542 220.081 757.125 210.081 754.292 202.748C751.459 195.415 746.375 188.831 739.042 182.998C735.209 179.831 730.292 177.498 724.292 175.998C718.459 174.498 712.125 173.748 705.292 173.748C694.959 173.748 686.042 176.831 678.542 182.998C671.042 188.998 665.292 196.831 661.292 206.498C657.459 216.165 655.542 226.248 655.542 236.748ZM896.694 241.498C902.528 251.331 908.361 260.081 914.194 267.748C920.194 275.248 928.028 284.498 937.694 295.498C938.861 296.665 939.444 297.998 939.444 299.498C939.444 301.831 938.111 303.831 935.444 305.498C932.944 307.165 929.861 307.998 926.194 307.998C921.028 307.998 915.444 305.831 909.444 301.498C904.111 297.665 899.361 292.581 895.194 286.248C891.028 279.915 886.194 271.665 880.694 261.498C876.361 253.665 873.778 249.081 872.944 247.748C866.444 250.415 856.278 252.081 842.444 252.748C842.444 258.415 842.944 266.081 843.944 275.748C844.944 285.748 845.444 292.998 845.444 297.498C845.444 300.498 843.944 302.998 840.944 304.998C838.111 306.998 834.861 307.998 831.194 307.998C826.861 307.998 823.528 306.248 821.194 302.748C818.861 298.081 817.361 292.498 816.694 285.998C816.028 279.498 815.694 271.748 815.694 262.748C815.694 253.248 816.278 242.498 817.444 230.498C818.444 217.165 818.944 207.331 818.944 200.998C818.944 195.831 818.444 188.915 817.444 180.248C817.278 178.748 817.028 176.165 816.694 172.498C816.361 168.831 816.194 165.498 816.194 162.498C816.194 160.165 817.028 158.165 818.694 156.498C820.528 154.665 822.444 153.415 824.444 152.748C837.944 150.581 851.111 149.498 863.944 149.498C885.778 149.498 903.861 153.581 918.194 161.748C932.528 169.915 939.694 182.331 939.694 198.998C939.694 204.165 938.528 209.165 936.194 213.998C934.028 218.665 931.028 222.581 927.194 225.748C917.028 233.581 906.861 238.831 896.694 241.498ZM913.444 198.248C913.444 190.248 909.194 183.748 900.694 178.748C892.194 173.581 880.111 170.998 864.444 170.998C857.444 170.998 850.528 171.831 843.694 173.498L843.944 186.248C843.944 193.581 843.694 200.748 843.194 207.748C842.694 214.748 842.444 222.248 842.444 230.248C845.278 229.581 848.278 229.165 851.444 228.998C854.611 228.665 856.694 228.415 857.694 228.248C865.028 227.581 870.694 226.748 874.694 225.748C882.194 223.415 888.361 221.331 893.194 219.498C898.194 217.498 902.778 214.748 906.944 211.248C911.278 207.581 913.444 203.248 913.444 198.248ZM951.323 161.998C951.323 154.831 956.573 151.248 967.073 151.248C971.573 151.248 980.157 151.415 992.823 151.748C1006.82 152.415 1017.41 152.748 1024.57 152.748C1030.41 152.748 1037.49 152.415 1045.82 151.748C1051.49 151.415 1055.07 151.248 1056.57 151.248C1065.74 151.581 1073.49 153.248 1079.82 156.248C1081.66 157.081 1083.16 158.081 1084.32 159.248C1085.49 160.415 1086.07 162.331 1086.07 164.998C1086.07 168.665 1084.91 171.831 1082.57 174.498C1080.24 176.998 1077.41 178.248 1074.07 178.248C1070.41 178.248 1065.07 177.748 1058.07 176.748C1051.91 175.581 1046.49 174.998 1041.82 174.998C1037.32 174.998 1033.91 175.081 1031.57 175.248C1031.07 180.748 1030.82 193.915 1030.82 214.748C1030.82 239.581 1031.57 264.748 1033.07 290.248L1033.57 297.498C1033.57 304.331 1029.66 307.748 1021.82 307.748C1015.66 307.748 1011.49 306.331 1009.32 303.498C1007.16 300.498 1006.07 295.998 1006.07 289.998C1006.07 278.165 1005.74 263.415 1005.07 245.748C1004.41 231.081 1004.07 220.665 1004.07 214.498C1004.07 210.331 1004.57 197.581 1005.57 176.248L976.323 176.498C966.99 176.498 960.49 175.665 956.823 173.998C953.157 172.165 951.323 168.165 951.323 161.998ZM1134.96 298.748C1134.46 301.248 1132.96 303.415 1130.46 305.248C1128.13 306.915 1124.79 307.748 1120.46 307.748C1116.79 307.748 1113.88 306.748 1111.71 304.748C1109.71 302.748 1108.63 300.665 1108.46 298.498C1109.46 291.498 1109.96 280.998 1109.96 266.998C1109.96 258.665 1109.46 245.831 1108.46 228.498C1107.29 212.165 1106.71 197.665 1106.71 184.998C1106.71 178.165 1107.04 171.165 1107.71 163.998C1107.71 161.665 1109.04 159.165 1111.71 156.498C1114.54 153.831 1118.38 152.165 1123.21 151.498C1133.04 150.498 1146.13 149.998 1162.46 149.998L1189.46 150.248C1195.29 150.248 1200.79 151.415 1205.96 153.748C1211.29 155.915 1213.96 159.665 1213.96 164.998C1213.96 172.498 1210.04 176.248 1202.21 176.248C1199.88 176.248 1197.46 176.081 1194.96 175.748C1192.46 175.415 1190.71 175.165 1189.71 174.998C1184.04 173.998 1179.38 173.498 1175.71 173.498H1163.46C1148.63 173.498 1138.13 174.331 1131.96 175.998C1131.96 181.498 1132.13 190.415 1132.46 202.748L1132.71 218.748C1141.54 218.748 1153.38 218.165 1168.21 216.998C1177.21 216.331 1183.13 215.998 1185.96 215.998C1189.96 215.998 1193.29 216.831 1195.96 218.498C1198.63 220.165 1199.96 222.831 1199.96 226.498C1199.96 234.998 1194.13 239.248 1182.46 239.248C1176.63 239.248 1172.21 239.331 1169.21 239.498L1154.46 239.748C1146.79 239.748 1140.29 239.998 1134.96 240.498C1134.96 246.665 1135.21 253.165 1135.71 259.998C1135.71 262.165 1135.79 265.498 1135.96 269.998C1136.29 274.498 1136.46 278.581 1136.46 282.248C1136.46 285.415 1136.38 288.331 1136.21 290.998C1136.04 293.665 1135.63 296.248 1134.96 298.748ZM1309.66 307.998C1298.66 307.998 1288.58 306.665 1279.41 303.998C1270.25 301.165 1262.75 297.081 1256.91 291.748C1246.25 282.248 1238.75 271.915 1234.41 260.748C1230.25 249.415 1228.16 234.998 1228.16 217.498C1228.16 213.831 1228.66 210.415 1229.66 207.248C1230.83 203.915 1232.33 200.248 1234.16 196.248C1234.66 195.081 1235.41 193.248 1236.41 190.748C1237.58 188.081 1238.33 185.665 1238.66 183.498C1241.83 177.665 1247.16 172.081 1254.66 166.748C1262.33 161.415 1270.58 157.165 1279.41 153.998C1288.25 150.665 1296 148.998 1302.66 148.998C1334.83 148.998 1357.83 159.998 1371.66 181.998C1379.5 194.831 1383.41 207.748 1383.41 220.748C1383.41 237.581 1380.33 252.331 1374.16 264.998C1368.16 277.665 1359.83 287.498 1349.16 294.498C1342.5 298.498 1335.66 301.748 1328.66 304.248C1321.66 306.748 1315.33 307.998 1309.66 307.998ZM1254.16 235.998C1254 245.165 1255.91 252.748 1259.91 258.748C1264.08 264.581 1270.58 270.998 1279.41 277.998C1286.08 280.498 1290.75 282.165 1293.41 282.998C1296.08 283.831 1299 284.248 1302.16 284.248C1313 284.248 1322.58 281.998 1330.91 277.498C1339.25 272.998 1345.66 266.831 1350.16 258.998C1354.83 251.165 1357.16 242.415 1357.16 232.748C1357.16 220.081 1355.75 210.081 1352.91 202.748C1350.08 195.415 1345 188.831 1337.66 182.998C1333.83 179.831 1328.91 177.498 1322.91 175.998C1317.08 174.498 1310.83 173.748 1304.16 173.748C1288.16 173.748 1275.75 179.415 1266.91 190.748C1258.25 201.915 1254 216.998 1254.16 235.998ZM1426.83 148.998C1430 148.998 1432.83 149.831 1435.33 151.498C1438 153.165 1439.58 156.081 1440.08 160.248C1442.08 173.415 1443.33 186.581 1443.83 199.748C1444.5 212.748 1444.83 227.498 1444.83 243.998C1444.83 250.998 1444.25 263.748 1443.08 282.248C1450.42 282.915 1456.08 283.248 1460.08 283.248C1462.92 283.248 1469.33 282.831 1479.33 281.998C1485.17 281.165 1490.25 280.748 1494.58 280.748C1498.58 280.748 1502.25 281.165 1505.58 281.998C1508.92 282.665 1512.33 283.831 1515.83 285.498C1519.33 287.498 1521.08 290.581 1521.08 294.748C1521.08 298.081 1520 301.081 1517.83 303.748C1515.83 306.415 1513.42 307.748 1510.58 307.748C1508.58 307.748 1505.42 307.415 1501.08 306.748C1493.25 305.581 1485.75 304.998 1478.58 304.998C1476.25 304.998 1473.58 305.165 1470.58 305.498C1467.75 305.665 1465.67 305.748 1464.33 305.748C1460.33 306.248 1456.33 306.498 1452.33 306.498C1444.17 306.498 1436.83 306.081 1430.33 305.248C1427 304.915 1423.67 303.665 1420.33 301.498C1417 299.165 1415.33 295.831 1415.33 291.498C1415.33 288.998 1415.67 282.581 1416.33 272.248C1417.5 255.081 1418.08 241.998 1418.08 232.998C1418.08 225.998 1417.75 218.665 1417.08 210.998C1416.42 203.331 1416 198.498 1415.83 196.498C1414.33 182.331 1413.58 170.665 1413.58 161.498C1413.58 157.165 1414.58 153.998 1416.58 151.998C1418.75 149.998 1422.17 148.998 1426.83 148.998ZM1580.55 169.748C1579.89 184.081 1579.55 194.331 1579.55 200.498C1579.55 213.998 1579.97 228.915 1580.8 245.248C1581.47 264.581 1581.8 278.915 1581.8 288.248C1588.14 287.415 1591.97 286.998 1593.3 286.998C1596.97 286.998 1599.89 287.915 1602.05 289.748C1604.22 291.581 1605.3 294.415 1605.3 298.248C1605.3 300.748 1604.3 302.665 1602.3 303.998C1600.3 305.331 1596.8 306.331 1591.8 306.998C1586.97 307.498 1579.89 307.748 1570.55 307.748C1560.22 307.748 1552.47 307.415 1547.3 306.748C1542.14 306.081 1538.55 304.831 1536.55 302.998C1534.55 300.998 1533.55 298.081 1533.55 294.248C1533.55 291.415 1534.47 289.498 1536.3 288.498C1538.14 287.498 1540.72 286.998 1544.05 286.998L1549.3 287.248L1557.55 287.748L1556.3 258.248C1555.3 242.248 1554.8 227.581 1554.8 214.248C1554.8 207.081 1555.05 197.248 1555.55 184.748L1556.05 170.998C1550.39 171.331 1545.97 171.498 1542.8 171.498C1539.14 171.498 1536.64 170.831 1535.3 169.498C1534.14 168.165 1533.55 165.415 1533.55 161.248C1533.55 156.581 1536.72 153.581 1543.05 152.248C1549.55 150.915 1559.39 150.248 1572.55 150.248C1582.72 150.248 1590.3 150.581 1595.3 151.248C1600.47 151.915 1603.05 153.415 1603.05 155.748C1603.05 161.415 1601.8 165.165 1599.3 166.998C1596.97 168.665 1592.39 169.498 1585.55 169.498L1580.55 169.748ZM1702.32 148.748C1713.48 148.748 1723.65 150.165 1732.82 152.998C1741.98 155.665 1749.48 159.665 1755.32 164.998C1765.82 174.498 1773.15 184.915 1777.32 196.248C1781.65 207.415 1783.82 221.748 1783.82 239.248C1783.82 242.915 1783.32 246.248 1782.32 249.248C1781.48 252.248 1780.07 256.081 1778.07 260.748C1775.57 265.915 1774.07 269.998 1773.57 272.998C1770.23 278.831 1764.73 284.415 1757.07 289.748C1749.57 295.081 1741.4 299.415 1732.57 302.748C1723.73 306.081 1715.98 307.748 1709.32 307.748C1677.15 307.748 1654.23 296.748 1640.57 274.748C1636.73 268.581 1633.73 262.165 1631.57 255.498C1629.57 248.831 1628.57 242.331 1628.57 235.998C1628.57 218.998 1631.57 204.248 1637.57 191.748C1643.73 179.081 1652.23 169.248 1663.07 162.248C1669.57 158.415 1676.32 155.248 1683.32 152.748C1690.48 150.081 1696.82 148.748 1702.32 148.748ZM1654.57 236.748C1654.57 245.748 1656.57 253.165 1660.57 258.998C1664.73 264.831 1671.07 271.165 1679.57 277.998C1686.57 280.665 1691.32 282.415 1693.82 283.248C1696.32 283.915 1699.15 284.248 1702.32 284.248C1719.15 284.248 1732.57 279.665 1742.57 270.498C1752.57 261.331 1757.57 248.748 1757.57 232.748C1757.57 220.081 1756.15 210.081 1753.32 202.748C1750.48 195.415 1745.4 188.831 1738.07 182.998C1734.23 179.831 1729.32 177.498 1723.32 175.998C1717.48 174.498 1711.15 173.748 1704.32 173.748C1693.98 173.748 1685.07 176.831 1677.57 182.998C1670.07 188.998 1664.32 196.831 1660.32 206.498C1656.48 216.165 1654.57 226.248 1654.57 236.748Z" fill="#222221"/>
</g>
<defs>
<filter id="filter0_d_124_2" x="69.2822" y="138.748" width="1714.53" height="169.25" filterUnits="userSpaceOnUse" color-interpolation-filters="sRGB">
<feFlood flood-opacity="0" result="BackgroundImageFix"/>
<feColorMatrix in="SourceAlpha" type="matrix" values="0 0 0 0 0 0 0 0 0 0 0 0 0 0 0 0 0 0 127 0" result="hardAlpha"/>
<feOffset dx="-20" dy="-6"/>
<feGaussianBlur stdDeviation="2"/>
<feComposite in2="hardAlpha" operator="out"/>
<feColorMatrix type="matrix" values="0 0 0 0 0 0 0 0 0 0 0 0 0 0 0 0 0 0 0.25 0"/>
<feBlend mode="normal" in2="BackgroundImageFix" result="effect1_dropShadow_124_2"/>
<feBlend mode="normal" in="SourceGraphic" in2="effect1_dropShadow_124_2" result="shape"/>
</filter>
</defs>
</svg>
